<svg width="148" height="22" viewBox="0 0 148 22" fill="none" xmlns="http://www.w3.org/2000/svg">
<path fill-rule="evenodd" clip-rule="evenodd" d="M105.731 17.0778L112.273 11.074C112.333 11.0193 112.393 10.9646 112.453 10.9096L112.453 10.9096L112.454 10.9095C113.483 9.9714 114.582 8.9705 114.582 7.22355C114.582 5.80497 113.761 4.38639 111.863 4.38639C109.682 4.38639 108.81 6.33706 108.938 8.00896H105.526C105.398 4.66516 107.296 1.19458 111.76 1.19458C115.301 1.19458 117.994 3.52511 117.994 7.27421C117.994 9.50341 116.943 11.4034 114.121 13.8859L110.503 17.0778H117.994V20.2696H105.731V17.0778ZM122.484 1.52387H131.232L131.053 4.71567H125.024L124.434 8.18626C124.793 8.00881 125.563 7.65416 126.794 7.65416C130.514 7.65416 132.874 10.694 132.874 14.1646C132.874 17.8885 130.155 20.7256 126.332 20.7256C122.561 20.7256 120.175 17.9898 119.842 14.7219H123.254C123.51 16.2924 124.613 17.5338 126.307 17.5338C128.154 17.5338 129.462 16.2166 129.462 14.1139C129.462 12.2648 128.205 10.8462 126.281 10.8462C125.409 10.8462 124.382 11.2513 123.741 12.1887L120.688 11.3529L122.484 1.52387ZM137.648 7.39297H138.881V1.89256H134.345V5.74274C134.345 6.11226 134.21 6.28492 133.947 6.28492C133.78 6.28492 133.621 6.27711 133.486 6.26148V7.39297C133.756 7.41666 133.955 7.43229 134.122 7.43229C135.117 7.43229 135.579 6.94506 135.579 5.85289V3.21259C135.579 3.1105 135.563 3.01623 135.539 2.97691L135.555 2.96129C135.602 2.99254 135.658 3.00061 135.77 3.00061H137.449C137.568 3.00061 137.624 2.99254 137.671 2.96129L137.687 2.97691C137.663 3.01623 137.648 3.1105 137.648 3.21259V7.39297ZM143.385 2.97696H141.364C141.236 2.97696 141.181 2.96133 141.141 2.93764L141.125 2.95326C141.149 2.99258 141.165 3.08685 141.165 3.18894V3.73918C141.165 3.84908 141.149 3.94335 141.125 3.98267L141.141 3.99829C141.181 3.97485 141.236 3.95923 141.364 3.95923H143.17V5.0277H141.364C141.236 5.0277 141.181 5.01207 141.141 4.98863L141.125 5.00426C141.149 5.04358 141.165 5.13785 141.165 5.23993V6.09642C141.165 6.19851 141.149 6.29278 141.125 6.3321L141.141 6.34798C141.181 6.32428 141.236 6.30866 141.364 6.30866H143.417V7.39301H139.931V1.8926H143.385V2.97696ZM146.703 3.00053H148V1.89249H143.775V3.00053H145.08C145.191 3.00053 145.247 2.98491 145.287 2.96121L145.303 2.97684C145.287 3.01616 145.271 3.10262 145.271 3.21251V7.39289H146.504V3.21251C146.504 3.10262 146.496 3.01616 146.48 2.97684L146.496 2.96121C146.536 2.98491 146.592 3.00053 146.703 3.00053ZM92.2773 11.5903L85.4683 2.94595H90.9155L97.7245 11.5902H97.7246L97.7245 11.5903L90.9155 20.2346H85.4683L92.2773 11.5903Z" fill="#04E762"/>
<path fill-rule="evenodd" clip-rule="evenodd" d="M14.146 5.32447H11.8623C7.28383 5.32447 3.37361 16.6867 8.77665 16.6759H12.2521C14.2575 16.6759 15.7389 17.3912 15.0815 19.327L14.1797 21.989H10.4921L7.49545 21.9557C3.66309 21.923 1.19004 20.0641 0.299149 17.2483C-0.670109 14.2014 0.699922 7.85387 4.64358 3.78414C6.9382 1.41934 10.1132 0 14.1797 0H21.6989L20.518 3.33346C19.8086 5.3521 18.3962 5.33605 17.4969 5.32583C17.4358 5.32514 17.377 5.32447 17.321 5.32447H14.146ZM55.6871 8.34939H43.5778C41.573 8.34939 40.6703 8.89888 40.3027 10.0319L39.1665 13.6618H51.276C53.2809 13.6618 54.1833 13.112 54.5511 11.9788L55.6871 8.34939ZM40.6259 16.6867H52.7351L51.5987 20.3174C51.2311 21.4501 50.3287 21.9999 48.3236 21.9999H36.2141L37.3508 18.37C37.7184 17.2372 38.6205 16.6867 40.6259 16.6867ZM46.3855 0.021924H58.4945L57.3583 3.65256C56.9905 4.78481 56.0881 5.3353 54.0832 5.3353H41.9737L43.1099 1.70542C43.4775 0.572418 44.3802 0.021924 46.3855 0.021924ZM28.0486 5.31352H31.0677C33.6411 5.31352 33.0506 8.48139 31.7472 11.5724C30.5995 14.2893 28.5722 16.6977 26.1548 16.6977H21.1308C19.1254 16.6977 18.2008 17.2482 17.8108 18.3815L16.5745 22H20.2619L23.8602 21.9667C27.0572 21.9448 29.664 21.7137 32.7275 18.9967C35.9584 16.126 39.7234 8.67925 39.0773 4.37839C38.5762 1.00107 36.738 0.0109825 32.2818 0.0109825H24.1721L19.4486 13.6508H22.4452L22.491 13.6508C24.2433 13.651 25.138 13.6511 26.0769 11.1542L28.0486 5.31352ZM59.3746 21.9999H53.6596L61.3463 1.06986e-05H67.0613L63.7859 9.47133H63.8525C64.5351 8.62169 65.2263 7.90197 65.9107 7.18942C65.9972 7.09933 66.0836 7.00936 66.1699 6.91925L72.7538 1.06986e-05H79.7607L68.9214 9.71306L73.4331 21.9999H69.0552C67.6517 21.9999 67.0166 21.1532 66.3925 19.2174L64.3761 12.9578L61.8252 15.0811L59.3746 21.9999Z" fill="#12343A"/>
</svg>
